<svg id="Layer_1" data-name="Layer 1" xmlns="http://www.w3.org/2000/svg" xmlns:xlink="http://www.w3.org/1999/xlink" viewBox="0 0 16 16"><defs><style>.cls-1{fill:url(#linear-gradient);}</style><linearGradient id="linear-gradient" x1="0.5" y1="8" x2="15.5" y2="8" gradientUnits="userSpaceOnUse"><stop offset="0" stop-color="#9bf0e1"/><stop offset="0.5" stop-color="#26abe8"/><stop offset="1" stop-color="#f037a5"/></linearGradient></defs><path class="cls-1" d="M15.5,8a3.75,3.75,0,0,0-3.75-3.75h0L13.3,2.7A3.74,3.74,0,0,0,8,2.7V.5A3.75,3.75,0,0,0,4.25,4.25L2.7,2.7A3.74,3.74,0,0,0,2.7,8H.5a3.75,3.75,0,0,0,3.75,3.75L2.7,13.3a3.74,3.74,0,0,0,5.3,0v2.2a3.75,3.75,0,0,0,3.75-3.75L13.3,13.3a3.74,3.74,0,0,0,0-5.3Z"/></svg>